<?xml version="1.0" encoding="UTF-8" standalone="no"?>
<svg
   xmlns:dc="http://purl.org/dc/elements/1.1/"
   xmlns:cc="http://creativecommons.org/ns#"
   xmlns:rdf="http://www.w3.org/1999/02/22-rdf-syntax-ns#"
   xmlns:svg="http://www.w3.org/2000/svg"
   xmlns="http://www.w3.org/2000/svg"
   xmlns:sodipodi="http://sodipodi.sourceforge.net/DTD/sodipodi-0.dtd"
   xmlns:inkscape="http://www.inkscape.org/namespaces/inkscape"
   height="4047"
   width="5000"
   id="svg2"
   version="1.1"
   inkscape:version="0.48.4 r9939"
   sodipodi:docname="easyfig">
  <metadata
     id="metadata122">
    <rdf:RDF>
      <cc:Work
         rdf:about="">
        <dc:format>image/svg+xml</dc:format>
        <dc:type
           rdf:resource="http://purl.org/dc/dcmitype/StillImage" />
        <dc:title>Easyfig</dc:title>
      </cc:Work>
    </rdf:RDF>
  </metadata>
  <defs
     id="defs120" />
  <sodipodi:namedview
     pagecolor="#ffffff"
     bordercolor="#666666"
     borderopacity="1"
     objecttolerance="10"
     gridtolerance="10"
     guidetolerance="10"
     inkscape:pageopacity="0"
     inkscape:pageshadow="2"
     inkscape:window-width="640"
     inkscape:window-height="480"
     id="namedview118"
     showgrid="false"
     inkscape:zoom="0.0584"
     inkscape:cx="2500"
     inkscape:cy="75.5"
     inkscape:window-x="55"
     inkscape:window-y="34"
     inkscape:window-maximized="0"
     inkscape:current-layer="svg2" />
  <title
     id="title4">Easyfig</title>
  <g
     style="fill-opacity:1.0; stroke:black; stroke-width:1;"
     id="g6">  <text
    style="font-size:64px;font-style:normal;font-weight:normal;line-height:125%;letter-spacing:0px;word-spacing:0px;fill:#000000;fill-opacity:1;stroke:none;font-family:Sans"
    x="-386"
    y="4143"
    sodipodi:linespacing="125%"
    transform="matrix(0,-1,1,0,0,0)"><tspan
      sodipodi:role="line"
      x="-386"
      y="4143">parM,stbA</tspan></text>
  <text
    style="font-size:64px;font-style:normal;font-weight:normal;line-height:125%;letter-spacing:0px;word-spacing:0px;fill:#000000;fill-opacity:1;stroke:none;font-family:Sans"
    x="-386"
    y="4507"
    sodipodi:linespacing="125%"
    transform="matrix(0,-1,1,0,0,0)"><tspan
      sodipodi:role="line"
      x="-386"
      y="4507">yubB</tspan></text>
  <text
    style="font-size:64px;font-style:normal;font-weight:normal;line-height:125%;letter-spacing:0px;word-spacing:0px;fill:#000000;fill-opacity:1;stroke:none;font-family:Sans"
    x="-386"
    y="2661"
    sodipodi:linespacing="125%"
    transform="matrix(0,-1,1,0,0,0)"><tspan
      sodipodi:role="line"
      x="-386"
      y="2661">blaTEM-1</tspan></text>
  <text
    style="font-size:64px;font-style:normal;font-weight:normal;line-height:125%;letter-spacing:0px;word-spacing:0px;fill:#000000;fill-opacity:1;stroke:none;font-family:Sans"
    x="-386"
    y="497"
    sodipodi:linespacing="125%"
    transform="matrix(0,-1,1,0,0,0)"><tspan
      sodipodi:role="line"
      x="-386"
      y="497">repA</tspan></text>
  <text
    style="font-size:64px;font-style:normal;font-weight:normal;line-height:125%;letter-spacing:0px;word-spacing:0px;fill:#000000;fill-opacity:1;stroke:none;font-family:Sans"
    x="-386"
    y="1651"
    sodipodi:linespacing="125%"
    transform="matrix(0,-1,1,0,0,0)"><tspan
      sodipodi:role="line"
      x="-386"
      y="1651">aph(6)-Id</tspan></text>
  <text
    style="font-size:64px;font-style:normal;font-weight:normal;line-height:125%;letter-spacing:0px;word-spacing:0px;fill:#000000;fill-opacity:1;stroke:none;font-family:Sans"
    x="-386"
    y="2074"
    sodipodi:linespacing="125%"
    transform="matrix(0,-1,1,0,0,0)"><tspan
      sodipodi:role="line"
      x="-386"
      y="2074">sul2</tspan></text>
  <text
    style="font-size:64px;font-style:normal;font-weight:normal;line-height:125%;letter-spacing:0px;word-spacing:0px;fill:#000000;fill-opacity:1;stroke:none;font-family:Sans"
    x="-386"
    y="1857"
    sodipodi:linespacing="125%"
    transform="matrix(0,-1,1,0,0,0)"><tspan
      sodipodi:role="line"
      x="-386"
      y="1857">aph(3'')-I</tspan></text>
  <text
    style="font-size:64px;font-style:normal;font-weight:normal;line-height:125%;letter-spacing:0px;word-spacing:0px;fill:#000000;fill-opacity:1;stroke:none;font-family:Sans"
    x="-386"
    y="3066"
    sodipodi:linespacing="125%"
    transform="matrix(0,-1,1,0,0,0)"><tspan
      sodipodi:role="line"
      x="-386"
      y="3066">dfrA8</tspan></text>
  <text
    style="font-size:64px;font-style:normal;font-weight:normal;line-height:125%;letter-spacing:0px;word-spacing:0px;fill:#000000;fill-opacity:1;stroke:none;font-family:Sans"
    x="-386"
    y="3979"
    sodipodi:linespacing="125%"
    transform="matrix(0,-1,1,0,0,0)"><tspan
      sodipodi:role="line"
      x="-386"
      y="3979">stbB</tspan></text>
  <text
    style="font-size:64px;font-style:normal;font-weight:normal;line-height:125%;letter-spacing:0px;word-spacing:0px;fill:#000000;fill-opacity:1;stroke:none;font-family:Sans"
    x="-386"
    y="868"
    sodipodi:linespacing="125%"
    transform="matrix(0,-1,1,0,0,0)"><tspan
      sodipodi:role="line"
      x="-386"
      y="868">putA1</tspan></text>
  <text
    style="font-size:64px;font-style:normal;font-weight:normal;line-height:125%;letter-spacing:0px;word-spacing:0px;fill:#000000;fill-opacity:1;stroke:none;font-family:Sans"
    x="-386"
    y="283"
    sodipodi:linespacing="125%"
    transform="matrix(0,-1,1,0,0,0)"><tspan
      sodipodi:role="line"
      x="-386"
      y="283">repA2</tspan></text>
  <text
    style="font-size:64px;font-style:normal;font-weight:normal;line-height:125%;letter-spacing:0px;word-spacing:0px;fill:#000000;fill-opacity:1;stroke:none;font-family:Sans"
    x="-386"
    y="383"
    sodipodi:linespacing="125%"
    transform="matrix(0,-1,1,0,0,0)"><tspan
      sodipodi:role="line"
      x="-386"
      y="383">tap</tspan></text>
  <line x1="4149" y1="3691" x2="4400" y2="3691"
        stroke-width="3" stroke="#000" />
  <line x1="4149" y1="3653" x2="4149" y2="3727"
        stroke-width="3" stroke="#000" />
  <line x1="4400" y1="3653" x2="4400" y2="3727"
        stroke-width="3" stroke="#000" />
  <text
    style="font-size:64px;font-style:normal;font-weight:normal;line-height:125%;letter-spacing:0px;word-spacing:0px;fill:#000000;fill-opacity:1;stroke:none;font-family:Sans"
    x="4177"
    y="3648"
    sodipodi:linespacing="125%"><tspan
      sodipodi:role="line"
      x="4177"
      y="3648">1 Kbp</tspan></text>
  <text
    style="font-size:64px;font-style:normal;font-weight:normal;line-height:125%;letter-spacing:0px;word-spacing:0px;fill:#000000;fill-opacity:1;stroke:none;font-family:Sans"
    x="4700"
    y="4026"
    sodipodi:linespacing="125%"><tspan
      sodipodi:role="line"
      x="4700"
      y="4026">94%</tspan></text>
  <text
    style="font-size:64px;font-style:normal;font-weight:normal;line-height:125%;letter-spacing:0px;word-spacing:0px;fill:#000000;fill-opacity:1;stroke:none;font-family:Sans"
    x="4700"
    y="3630"
    sodipodi:linespacing="125%"><tspan
      sodipodi:role="line"
      x="4700"
      y="3630">100%</tspan></text>
  <defs>
    <linearGradient id="MyGradient" x1="0%" y1="0%" x2="0%" y2="100%">
      <stop offset="0%" stop-color="#666" />
      <stop offset="100%" stop-color="#ccc" />
    </linearGradient>
  </defs>
  <rect fill="url(#MyGradient)" stroke-width="0"
        x="4600" y="3566" width="40" height="460"/>
  <defs>
    <linearGradient id="MyGradient2" x1="0%" y1="0%" x2="0%" y2="100%">
      <stop offset="0%" stop-color="#666" />
      <stop offset="100%" stop-color="#ccc" />
    </linearGradient>
</defs>
  <rect fill="url(#MyGradient2)" stroke-width="0"
        x="4640" y="3566" width="40" height="460" />
  <line x1="73" y1="471" x2="4926" y2="471"
        stroke-width="20" stroke="#000" />
  <polygon fill="#ccc" stroke="#000" stroke-width="1"
           points="4248,433 4082,433 4082,396 4007,471 4082,545 4082,507 4248,507" />
  <polygon fill="#ccc" stroke="#000" stroke-width="1"
           points="4376,433 4532,433 4532,396 4607,471 4532,545 4532,507 4376,507" />
  <polygon fill="#666" stroke="#000" stroke-width="1"
           points="938,433 1094,433 1094,396 1169,471 1094,545 1094,507 938,507" />
  <polygon fill="#666" stroke="#000" stroke-width="1"
           points="3582,433 3727,433 3727,396 3802,471 3727,545 3727,507 3582,507" />
  <polygon fill="#f00" stroke="#000" stroke-width="1"
           points="2752,433 2612,433 2612,396 2537,471 2612,545 2612,507 2752,507" />
  <polygon fill="#ccc" stroke="#000" stroke-width="1"
           points="374,433 514,433 514,396 589,471 514,545 514,507 374,507" />
  <polygon fill="#f00" stroke="#000" stroke-width="1"
           points="1740,433 1606,433 1606,396 1531,471 1606,545 1606,507 1740,507" />
  <polygon fill="#f00" stroke="#000" stroke-width="1"
           points="2160,433 2031,433 2031,396 1956,471 2031,545 2031,507 2160,507" />
  <polygon fill="#f00" stroke="#000" stroke-width="1"
           points="1941,433 1815,433 1815,396 1740,471 1815,545 1815,507 1941,507" />
  <polygon fill="#ff0" stroke="#000" stroke-width="1"
           points="3287,433 3388,433 3388,396 3463,471 3388,545 3388,507 3287,507" />
  <polygon fill="#ff0" stroke="#000" stroke-width="1"
           points="2786,433 2888,433 2888,396 2963,471 2888,545 2888,507 2786,507" />
  <polygon fill="#ccc" stroke="#000" stroke-width="1"
           points="4704,433 4800,433 4800,396 4875,471 4800,545 4800,507 4704,507" />
  <polygon fill="#ccc" stroke="#000" stroke-width="1"
           points="3113,433 3203,433 3203,396 3278,471 3203,545 3203,507 3113,507" />
  <polygon fill="#ff0" stroke="#000" stroke-width="1"
           points="1403,433 1463,433 1463,396 1538,471 1463,545 1463,507 1403,507" />
  <polygon fill="#f00" stroke="#000" stroke-width="1"
           points="2987,433 3039,433 3039,396 3114,471 3039,545 3039,507 2987,507" />
  <polygon fill="#666" stroke="#000" stroke-width="1"
           points="2497,433 2483,433 2483,396 2408,471 2483,545 2483,507 2497,507" />
  <polygon fill="#666" stroke="#000" stroke-width="1"
           points="3875,433 3861,433 3861,396 3786,471 3861,545 3861,507 3875,507" />
  <polygon fill="#ccc" stroke="#000" stroke-width="1"
           points="4007,433 3993,433 3993,396 3918,471 3993,545 3993,507 4007,507" />
  <polygon fill="#ccc" stroke="#000" stroke-width="1"
           points="818,396 818,545 885,471" />
  <polygon fill="#ccc" stroke="#000" stroke-width="1"
           points="235,396 235,545 299,471" />
  <polygon fill="#666" stroke="#000" stroke-width="1"
           points="2293,396 2293,545 2349,471" />
  <polygon fill="#666" stroke="#000" stroke-width="1"
           points="2245,396 2245,545 2296,471" />
  <polygon fill="#ccc" stroke="#000" stroke-width="1"
           points="884,396 884,545 925,471" />
  <polygon fill="#ccc" stroke="#000" stroke-width="1"
           points="357,396 357,545 376,471" />
  <polygon fill="#666" stroke="#666" stroke-width="0"
           points="73,545 2770,545 2697,896 0,896" />
  <line x1="73" y1="545" x2="0" y2="896"
        stroke-width="1" stroke="#000" />
  <line x1="2770" y1="545" x2="2697" y2="896"
        stroke-width="1" stroke="#000" />
  <polygon fill="#666" stroke="#666" stroke-width="0"
           points="2770,545 4926,545 4888,896 2736,896" />
  <line x1="2770" y1="545" x2="2736" y2="896"
        stroke-width="1" stroke="#000" />
  <line x1="4926" y1="545" x2="4888" y2="896"
        stroke-width="1" stroke="#000" />
  <polygon fill="#666" stroke="#666" stroke-width="0"
           points="2770,545 2976,545 3439,896 3233,896" />
  <line x1="2770" y1="545" x2="3233" y2="896"
        stroke-width="1" stroke="#000" />
  <line x1="2976" y1="545" x2="3439" y2="896"
        stroke-width="1" stroke="#000" />
  <polygon fill="#666" stroke="#666" stroke-width="0"
           points="3271,545 3476,545 2941,896 2736,896" />
  <line x1="3271" y1="545" x2="2736" y2="896"
        stroke-width="1" stroke="#000" />
  <line x1="3476" y1="545" x2="2941" y2="896"
        stroke-width="1" stroke="#000" />
  <line x1="0" y1="971" x2="5000" y2="971"
        stroke-width="20" stroke="#000" />
  <polygon fill="#ccc" stroke="#000" stroke-width="1"
           points="4210,933 4044,933 4044,896 3969,971 4044,1045 4044,1007 4210,1007" />
  <polygon fill="#ccc" stroke="#000" stroke-width="1"
           points="4338,933 4494,933 4494,896 4569,971 4494,1045 4494,1007 4338,1007" />
  <polygon fill="#666" stroke="#000" stroke-width="1"
           points="864,933 1020,933 1020,896 1095,971 1020,1045 1020,1007 864,1007" />
  <polygon fill="#666" stroke="#000" stroke-width="1"
           points="3544,933 3689,933 3689,896 3764,971 3689,1045 3689,1007 3544,1007" />
  <polygon fill="#f00" stroke="#000" stroke-width="1"
           points="2679,933 2539,933 2539,896 2464,971 2539,1045 2539,1007 2679,1007" />
  <polygon fill="#ccc" stroke="#000" stroke-width="1"
           points="301,933 440,933 440,896 515,971 440,1045 440,1007 301,1007" />
  <polygon fill="#f00" stroke="#000" stroke-width="1"
           points="1667,933 1532,933 1532,896 1457,971 1532,1045 1532,1007 1667,1007" />
  <polygon fill="#f00" stroke="#000" stroke-width="1"
           points="2087,933 1958,933 1958,896 1883,971 1958,1045 1958,1007 2087,1007" />
  <polygon fill="#f00" stroke="#000" stroke-width="1"
           points="1868,933 1742,933 1742,896 1667,971 1742,1045 1742,1007 1868,1007" />
  <polygon fill="#ff0" stroke="#000" stroke-width="1"
           points="2752,933 2853,933 2853,896 2928,971 2853,1045 2853,1007 2752,1007" />
  <polygon fill="#ff0" stroke="#000" stroke-width="1"
           points="3249,933 3350,933 3350,896 3425,971 3350,1045 3350,1007 3249,1007" />
  <polygon fill="#ccc" stroke="#000" stroke-width="1"
           points="4666,933 4762,933 4762,896 4837,971 4762,1045 4762,1007 4666,1007" />
  <polygon fill="#ccc" stroke="#000" stroke-width="1"
           points="3079,933 3162,933 3162,896 3237,971 3162,1045 3162,1007 3079,1007" />
  <polygon fill="#ff0" stroke="#000" stroke-width="1"
           points="1329,933 1389,933 1389,896 1464,971 1389,1045 1389,1007 1329,1007" />
  <polygon fill="#f00" stroke="#000" stroke-width="1"
           points="2952,933 3005,933 3005,896 3080,971 3005,1045 3005,1007 2952,1007" />
  <polygon fill="#666" stroke="#000" stroke-width="1"
           points="2424,933 2409,933 2409,896 2334,971 2409,1045 2409,1007 2424,1007" />
  <polygon fill="#666" stroke="#000" stroke-width="1"
           points="3837,933 3823,933 3823,896 3748,971 3823,1045 3823,1007 3837,1007" />
  <polygon fill="#ccc" stroke="#000" stroke-width="1"
           points="3969,933 3955,933 3955,896 3880,971 3955,1045 3955,1007 3969,1007" />
  <polygon fill="#ccc" stroke="#000" stroke-width="1"
           points="745,896 745,1045 812,971" />
  <polygon fill="#ccc" stroke="#000" stroke-width="1"
           points="161,896 161,1045 226,971" />
  <polygon fill="#666" stroke="#000" stroke-width="1"
           points="2220,896 2220,1045 2275,971" />
  <polygon fill="#ccc" stroke="#000" stroke-width="1"
           points="4837,896 4837,1045 4893,971" />
  <polygon fill="#666" stroke="#000" stroke-width="1"
           points="2172,896 2172,1045 2222,971" />
  <polygon fill="#ccc" stroke="#000" stroke-width="1"
           points="811,896 811,1045 852,971" />
  <polygon fill="#ccc" stroke="#000" stroke-width="1"
           points="284,896 284,1045 303,971" />
  <polygon fill="#888" stroke="#888" stroke-width="0"
           points="127,1045 2941,1045 3355,1396 540,1396" />
  <line x1="127" y1="1045" x2="540" y2="1396"
        stroke-width="1" stroke="#000" />
  <line x1="2941" y1="1045" x2="3355" y2="1396"
        stroke-width="1" stroke="#000" />
  <polygon fill="#777" stroke="#777" stroke-width="0"
           points="3233,1045 4837,1045 4754,1396 3150,1396" />
  <line x1="3233" y1="1045" x2="3150" y2="1396"
        stroke-width="1" stroke="#000" />
  <line x1="4837" y1="1045" x2="4754" y2="1396"
        stroke-width="1" stroke="#000" />
  <line x1="245" y1="1471" x2="4754" y2="1471"
        stroke-width="20" stroke="#000" />
  <polygon fill="#ccc" stroke="#000" stroke-width="1"
           points="4126,1433 3960,1433 3960,1396 3885,1471 3960,1545 3960,1507 4126,1507" />
  <polygon fill="#ccc" stroke="#000" stroke-width="1"
           points="4254,1433 4411,1433 4411,1396 4486,1471 4411,1545 4411,1507 4254,1507" />
  <polygon fill="#666" stroke="#000" stroke-width="1"
           points="1278,1433 1434,1433 1434,1396 1509,1471 1434,1545 1434,1507 1278,1507" />
  <polygon fill="#666" stroke="#000" stroke-width="1"
           points="3460,1433 3606,1433 3606,1396 3681,1471 3606,1545 3606,1507 3460,1507" />
  <polygon fill="#f00" stroke="#000" stroke-width="1"
           points="3092,1433 2952,1433 2952,1396 2877,1471 2952,1545 2952,1507 3092,1507" />
  <polygon fill="#ccc" stroke="#000" stroke-width="1"
           points="715,1433 854,1433 854,1396 929,1471 854,1545 854,1507 715,1507" />
  <polygon fill="#f00" stroke="#000" stroke-width="1"
           points="2080,1433 1946,1433 1946,1396 1871,1471 1946,1545 1946,1507 2080,1507" />
  <polygon fill="#f00" stroke="#000" stroke-width="1"
           points="2501,1433 2372,1433 2372,1396 2297,1471 2372,1545 2372,1507 2501,1507" />
  <polygon fill="#f00" stroke="#000" stroke-width="1"
           points="2281,1433 2155,1433 2155,1396 2080,1471 2155,1545 2155,1507 2281,1507" />
  <polygon fill="#ff0" stroke="#000" stroke-width="1"
           points="3165,1433 3267,1433 3267,1396 3342,1471 3267,1545 3267,1507 3165,1507" />
  <polygon fill="#ccc" stroke="#000" stroke-width="1"
           points="4583,1433 4679,1433 4679,1396 4754,1471 4679,1545 4679,1507 4583,1507" />
  <polygon fill="#ccc" stroke="#000" stroke-width="1"
           points="366,1433 439,1433 439,1396 514,1471 439,1545 439,1507 366,1507" />
  <polygon fill="#ff0" stroke="#000" stroke-width="1"
           points="1743,1433 1803,1433 1803,1396 1878,1471 1803,1545 1803,1507 1743,1507" />
  <polygon fill="#666" stroke="#000" stroke-width="1"
           points="3754,1433 3739,1433 3739,1396 3664,1471 3739,1545 3739,1507 3754,1507" />
  <polygon fill="#ccc" stroke="#000" stroke-width="1"
           points="3885,1433 3872,1433 3872,1396 3797,1471 3872,1545 3872,1507 3885,1507" />
  <polygon fill="#ccc" stroke="#000" stroke-width="1"
           points="2748,1471 2819,1545 2819,1396" />
  <polygon fill="#ccc" stroke="#000" stroke-width="1"
           points="1158,1396 1158,1545 1225,1471" />
  <polygon fill="#ccc" stroke="#000" stroke-width="1"
           points="574,1396 574,1545 636,1471" />
  <polygon fill="#666" stroke="#000" stroke-width="1"
           points="2634,1396 2634,1545 2689,1471" />
  <polygon fill="#666" stroke="#000" stroke-width="1"
           points="2585,1396 2585,1545 2636,1471" />
  <polygon fill="#ccc" stroke="#000" stroke-width="1"
           points="1225,1396 1225,1545 1266,1471" />
  <polygon fill="#ccc" stroke="#000" stroke-width="1"
           points="698,1396 698,1545 716,1471" />
  <polygon fill="#777" stroke="#777" stroke-width="0"
           points="767,1545 3355,1545 2922,1896 334,1896" />
  <line x1="767" y1="1545" x2="334" y2="1896"
        stroke-width="1" stroke="#000" />
  <line x1="3355" y1="1545" x2="2922" y2="1896"
        stroke-width="1" stroke="#000" />
  <polygon fill="#ccc" stroke="#ccc" stroke-width="0"
           points="4169,1545 4754,1545 4528,1896 3940,1896" />
  <line x1="4169" y1="1545" x2="3940" y2="1896"
        stroke-width="1" stroke="#000" />
  <line x1="4754" y1="1545" x2="4528" y2="1896"
        stroke-width="1" stroke="#000" />
  <polygon fill="#666" stroke="#666" stroke-width="0"
           points="3150,1545 3355,1545 3423,1896 3218,1896" />
  <line x1="3150" y1="1545" x2="3218" y2="1896"
        stroke-width="1" stroke="#000" />
  <line x1="3355" y1="1545" x2="3423" y2="1896"
        stroke-width="1" stroke="#000" />
  <line x1="334" y1="1971" x2="4665" y2="1971"
        stroke-width="20" stroke="#000" />
  <polygon fill="#ccc" stroke="#000" stroke-width="1"
           points="3576,1933 3747,1933 3747,1896 3822,1971 3747,2045 3747,2007 3576,2007" />
  <polygon fill="#ccc" stroke="#000" stroke-width="1"
           points="4028,1933 4185,1933 4185,1896 4260,1971 4185,2045 4185,2007 4028,2007" />
  <polygon fill="#666" stroke="#000" stroke-width="1"
           points="845,1933 1002,1933 1002,1896 1077,1971 1002,2045 1002,2007 845,2007" />
  <polygon fill="#f00" stroke="#000" stroke-width="1"
           points="2660,1933 2520,1933 2520,1896 2445,1971 2520,2045 2520,2007 2660,2007" />
  <polygon fill="#f00" stroke="#000" stroke-width="1"
           points="1648,1933 1513,1933 1513,1896 1438,1971 1513,2045 1513,2007 1648,2007" />
  <polygon fill="#f00" stroke="#000" stroke-width="1"
           points="2068,1933 1939,1933 1939,1896 1864,1971 1939,2045 1939,2007 2068,2007" />
  <polygon fill="#f00" stroke="#000" stroke-width="1"
           points="1849,1933 1723,1933 1723,1896 1648,1971 1723,2045 1723,2007 1849,2007" />
  <polygon fill="#ff0" stroke="#000" stroke-width="1"
           points="3234,1933 3335,1933 3335,1896 3410,1971 3335,2045 3335,2007 3234,2007" />
  <polygon fill="#ff0" stroke="#000" stroke-width="1"
           points="2733,1933 2834,1933 2834,1896 2909,1971 2834,2045 2834,2007 2733,2007" />
  <polygon fill="#ccc" stroke="#000" stroke-width="1"
           points="4356,1933 4453,1933 4453,1896 4528,1971 4453,2045 4453,2007 4356,2007" />
  <polygon fill="#ccc" stroke="#000" stroke-width="1"
           points="3060,1933 3149,1933 3149,1896 3224,1971 3149,2045 3149,2007 3060,2007" />
  <polygon fill="#ff0" stroke="#000" stroke-width="1"
           points="1310,1933 1370,1933 1370,1896 1445,1971 1370,2045 1370,2007 1310,2007" />
  <polygon fill="#f00" stroke="#000" stroke-width="1"
           points="2933,1933 2986,1933 2986,1896 3061,1971 2986,2045 2986,2007 2933,2007" />
  <polygon fill="#ccc" stroke="#000" stroke-width="1"
           points="3822,1933 3853,1933 3853,1896 3928,1971 3853,2045 3853,2007 3822,2007" />
  <polygon fill="#ccc" stroke="#000" stroke-width="1"
           points="405,1933 421,1933 421,1896 496,1971 421,2045 421,2007 405,2007" />
  <polygon fill="#666" stroke="#000" stroke-width="1"
           points="2405,1933 2390,1933 2390,1896 2315,1971 2390,2045 2390,2007 2405,2007" />
  <polygon fill="#ccc" stroke="#000" stroke-width="1"
           points="726,1896 726,2045 793,1971" />
  <polygon fill="#ccc" stroke="#000" stroke-width="1"
           points="4528,1896 4528,2045 4583,1971" />
  <polygon fill="#666" stroke="#000" stroke-width="1"
           points="2201,1896 2201,2045 2257,1971" />
  <polygon fill="#666" stroke="#000" stroke-width="1"
           points="2153,1896 2153,2045 2203,1971" />
  <polygon fill="#ccc" stroke="#000" stroke-width="1"
           points="792,1896 792,2045 833,1971" />
  <polygon fill="#666" stroke="#666" stroke-width="0"
           points="334,2045 3974,2045 4348,2396 709,2396" />
  <line x1="334" y1="2045" x2="709" y2="2396"
        stroke-width="1" stroke="#000" />
  <line x1="3974" y1="2045" x2="4348" y2="2396"
        stroke-width="1" stroke="#000" />
  <polygon fill="#666" stroke="#666" stroke-width="0"
           points="2717,2045 2922,2045 3797,2396 3592,2396" />
  <line x1="2717" y1="2045" x2="3592" y2="2396"
        stroke-width="1" stroke="#000" />
  <line x1="2922" y1="2045" x2="3797" y2="2396"
        stroke-width="1" stroke="#000" />
  <polygon fill="#666" stroke="#666" stroke-width="0"
           points="3218,2045 3423,2045 3297,2396 3092,2396" />
  <line x1="3218" y1="2045" x2="3092" y2="2396"
        stroke-width="1" stroke="#000" />
  <line x1="3423" y1="2045" x2="3297" y2="2396"
        stroke-width="1" stroke="#000" />
  <line x1="651" y1="2471" x2="4348" y2="2471"
        stroke-width="20" stroke="#000" />
  <polygon fill="#ccc" stroke="#000" stroke-width="1"
           points="3951,2433 4121,2433 4121,2396 4196,2471 4121,2545 4121,2507 3951,2507" />
  <polygon fill="#666" stroke="#000" stroke-width="1"
           points="1220,2433 1376,2433 1376,2396 1451,2471 1376,2545 1376,2507 1220,2507" />
  <polygon fill="#f00" stroke="#000" stroke-width="1"
           points="3034,2433 2894,2433 2894,2396 2819,2471 2894,2545 2894,2507 3034,2507" />
  <polygon fill="#ccc" stroke="#000" stroke-width="1"
           points="656,2433 796,2433 796,2396 871,2471 796,2545 796,2507 656,2507" />
  <polygon fill="#f00" stroke="#000" stroke-width="1"
           points="2022,2433 1888,2433 1888,2396 1813,2471 1888,2545 1888,2507 2022,2507" />
  <polygon fill="#f00" stroke="#000" stroke-width="1"
           points="2443,2433 2314,2433 2314,2396 2239,2471 2314,2545 2314,2507 2443,2507" />
  <polygon fill="#f00" stroke="#000" stroke-width="1"
           points="2223,2433 2097,2433 2097,2396 2022,2471 2097,2545 2097,2507 2223,2507" />
  <polygon fill="#ff0" stroke="#000" stroke-width="1"
           points="3608,2433 3709,2433 3709,2396 3784,2471 3709,2545 3709,2507 3608,2507" />
  <polygon fill="#ff0" stroke="#000" stroke-width="1"
           points="3107,2433 3209,2433 3209,2396 3284,2471 3209,2545 3209,2507 3107,2507" />
  <polygon fill="#ccc" stroke="#000" stroke-width="1"
           points="3434,2433 3524,2433 3524,2396 3599,2471 3524,2545 3524,2507 3434,2507" />
  <polygon fill="#ff0" stroke="#000" stroke-width="1"
           points="1685,2433 1745,2433 1745,2396 1820,2471 1745,2545 1745,2507 1685,2507" />
  <polygon fill="#f00" stroke="#000" stroke-width="1"
           points="3308,2433 3360,2433 3360,2396 3435,2471 3360,2545 3360,2507 3308,2507" />
  <polygon fill="#ccc" stroke="#000" stroke-width="1"
           points="4197,2433 4227,2433 4227,2396 4302,2471 4227,2545 4227,2507 4197,2507" />
  <polygon fill="#666" stroke="#000" stroke-width="1"
           points="2780,2433 2765,2433 2765,2396 2690,2471 2765,2545 2765,2507 2780,2507" />
  <polygon fill="#ccc" stroke="#000" stroke-width="1"
           points="1100,2396 1100,2545 1167,2471" />
  <polygon fill="#666" stroke="#000" stroke-width="1"
           points="2576,2396 2576,2545 2631,2471" />
  <polygon fill="#666" stroke="#000" stroke-width="1"
           points="2527,2396 2527,2545 2578,2471" />
  <polygon fill="#ccc" stroke="#000" stroke-width="1"
           points="1167,2396 1167,2545 1208,2471" />
  <polygon fill="#666" stroke="#666" stroke-width="0"
           points="651,2545 3111,2545 3842,2896 1382,2896" />
  <line x1="651" y1="2545" x2="1382" y2="2896"
        stroke-width="1" stroke="#000" />
  <line x1="3111" y1="2545" x2="3842" y2="2896"
        stroke-width="1" stroke="#000" />
  <line x1="1157" y1="2971" x2="3842" y2="2971"
        stroke-width="20" stroke="#000" />
  <polygon fill="#666" stroke="#000" stroke-width="1"
           points="1951,2933 2107,2933 2107,2896 2182,2971 2107,3045 2107,3007 1951,3007" />
  <polygon fill="#f00" stroke="#000" stroke-width="1"
           points="3766,2933 3625,2933 3625,2896 3550,2971 3625,3045 3625,3007 3766,3007" />
  <polygon fill="#ccc" stroke="#000" stroke-width="1"
           points="1387,2933 1527,2933 1527,2896 1602,2971 1527,3045 1527,3007 1387,3007" />
  <polygon fill="#f00" stroke="#000" stroke-width="1"
           points="2753,2933 2619,2933 2619,2896 2544,2971 2619,3045 2619,3007 2753,3007" />
  <polygon fill="#f00" stroke="#000" stroke-width="1"
           points="3174,2933 3045,2933 3045,2896 2970,2971 3045,3045 3045,3007 3174,3007" />
  <polygon fill="#f00" stroke="#000" stroke-width="1"
           points="2954,2933 2828,2933 2828,2896 2753,2971 2828,3045 2828,3007 2954,3007" />
  <polygon fill="#ff0" stroke="#000" stroke-width="1"
           points="2416,2933 2476,2933 2476,2896 2551,2971 2476,3045 2476,3007 2416,3007" />
  <polygon fill="#666" stroke="#000" stroke-width="1"
           points="3511,2933 3496,2933 3496,2896 3421,2971 3496,3045 3496,3007 3511,3007" />
  <polygon fill="#ccc" stroke="#000" stroke-width="1"
           points="1831,2896 1831,3045 1899,2971" />
  <polygon fill="#ccc" stroke="#000" stroke-width="1"
           points="1247,2896 1247,3045 1311,2971" />
  <polygon fill="#666" stroke="#000" stroke-width="1"
           points="3307,2896 3307,3045 3362,2971" />
  <polygon fill="#666" stroke="#000" stroke-width="1"
           points="3258,2896 3258,3045 3309,2971" />
  <polygon fill="#ccc" stroke="#000" stroke-width="1"
           points="1898,2896 1898,3045 1939,2971" />
  <polygon fill="#ccc" stroke="#000" stroke-width="1"
           points="1370,2896 1370,3045 1389,2971" />
  <polygon fill="#888" stroke="#888" stroke-width="0"
           points="1157,3045 3842,3045 4184,3396 1500,3396" />
  <line x1="1157" y1="3045" x2="1500" y2="3396"
        stroke-width="1" stroke="#000" />
  <line x1="3842" y1="3045" x2="4184" y2="3396"
        stroke-width="1" stroke="#000" />
  <line x1="815" y1="3471" x2="4184" y2="3471"
        stroke-width="20" stroke="#000" />
  <polygon fill="#666" stroke="#000" stroke-width="1"
           points="2293,3433 2449,3433 2449,3396 2524,3471 2449,3545 2449,3507 2293,3507" />
  <polygon fill="#f00" stroke="#000" stroke-width="1"
           points="4108,3433 3968,3433 3968,3396 3893,3471 3968,3545 3968,3507 4108,3507" />
  <polygon fill="#ccc" stroke="#000" stroke-width="1"
           points="1730,3433 1870,3433 1870,3396 1945,3471 1870,3545 1870,3507 1730,3507" />
  <polygon fill="#f00" stroke="#000" stroke-width="1"
           points="3096,3433 2961,3433 2961,3396 2886,3471 2961,3545 2961,3507 3096,3507" />
  <polygon fill="#f00" stroke="#000" stroke-width="1"
           points="3516,3433 3387,3433 3387,3396 3312,3471 3387,3545 3387,3507 3516,3507" />
  <polygon fill="#f00" stroke="#000" stroke-width="1"
           points="3297,3433 3171,3433 3171,3396 3096,3471 3171,3545 3171,3507 3297,3507" />
  <polygon fill="#ccc" stroke="#000" stroke-width="1"
           points="1382,3433 1455,3433 1455,3396 1530,3471 1455,3545 1455,3507 1382,3507" />
  <polygon fill="#ccc" stroke="#000" stroke-width="1"
           points="905,3433 971,3433 971,3396 1046,3471 971,3545 971,3507 905,3507" />
  <polygon fill="#ff0" stroke="#000" stroke-width="1"
           points="2758,3433 2818,3433 2818,3396 2893,3471 2818,3545 2818,3507 2758,3507" />
  <polygon fill="#ccc" stroke="#000" stroke-width="1"
           points="1194,3433 1234,3433 1234,3396 1309,3471 1234,3545 1234,3507 1194,3507" />
  <polygon fill="#666" stroke="#000" stroke-width="1"
           points="3853,3433 3838,3433 3838,3396 3763,3471 3838,3545 3838,3507 3853,3507" />
  <polygon fill="#ccc" stroke="#000" stroke-width="1"
           points="2174,3396 2174,3545 2241,3471" />
  <polygon fill="#666" stroke="#000" stroke-width="1"
           points="1080,3396 1080,3545 1143,3471" />
  <polygon fill="#ccc" stroke="#000" stroke-width="1"
           points="1590,3396 1590,3545 1652,3471" />
  <polygon fill="#666" stroke="#000" stroke-width="1"
           points="3649,3396 3649,3545 3704,3471" />
  <polygon fill="#666" stroke="#000" stroke-width="1"
           points="3601,3396 3601,3545 3651,3471" />
  <polygon fill="#ccc" stroke="#000" stroke-width="1"
           points="2240,3396 2240,3545 2281,3471" />
  <polygon fill="#ccc" stroke="#000" stroke-width="1"
           points="1713,3396 1713,3545 1732,3471" />
 </g>
</svg>